<svg xmlns="http://www.w3.org/2000/svg" xmlns:xlink="http://www.w3.org/1999/xlink" width="589.825" height="403.357" viewBox="0 0 589.825 403.357"><defs><style>.a{fill:url(#a);}</style><linearGradient id="a" x1="0.5" x2="0.5" y2="1" gradientUnits="objectBoundingBox"><stop offset="0" stop-color="#0d0c0c"/><stop offset="0.632" stop-color="#1c1b1b"/><stop offset="1" stop-color="#1c1b1b"/></linearGradient></defs><path class="a" d="M588.769,239a2.745,2.745,0,0,0-.626-2.088v-1.392c-3.13-34.8-22.532-66.818-50.7-82.13-1.878-.7-3.13-2.088-5.007-2.784h-.626c-7.511-3.48-15.648-6.264-24.41-6.96a25.331,25.331,0,0,0-6.885-.7,87.31,87.31,0,0,0,5.007-42.457A5.747,5.747,0,0,0,504.9,97.7c0-.7-.626-2.088-.626-2.784-3.129-22.273-12.518-43.153-27.54-57.77l-.626-.7-1.878-2.088C446.69,6.525,406.006-1.827,369.7,25.318c-16.9,12.528-28.166,31.321-33.173,50.809C325.265,48.982,306.488,26.014,282.7,12.789A106.856,106.856,0,0,0,224.495.261a110.668,110.668,0,0,0-53.827,20.881c-1.252.7-2.5,2.088-4.381,2.784a118.045,118.045,0,0,0-36.928,46.633,123.561,123.561,0,0,0-7.511,21.577,118,118,0,0,0-34.425,7.656C55.5,112.32,28.588,138.769,13.566,172.178A158.094,158.094,0,0,0,.422,248.043c2.5,38.281,18.777,73.082,44.439,98.139A109.565,109.565,0,0,0,74.9,368.455c24.41,11.136,41.935,17.4,68.849,15.312,14.4-1.392,31.3-6.264,46.317-13.224a28.269,28.269,0,0,0,4.381,4.176c6.259,6.96,14.4,13.224,22.532,16.7,21.907,9.744,30.669,12.528,54.453,11.832a59.581,59.581,0,0,0,18.777-3.48,91.769,91.769,0,0,0,38.18-17.4A116.589,116.589,0,0,0,350.3,360.1l1.252,1.392c22.532,22.273,55.079,29.233,83.245,18.1,15.022-5.568,28.166-16.7,38.18-30.625a84.161,84.161,0,0,0,53.827-2.784C562.481,332.262,596.28,284.932,588.769,239Z" transform="translate(0 0)"/></svg>