<svg xmlns="http://www.w3.org/2000/svg" xmlns:xlink="http://www.w3.org/1999/xlink" width="437.764" height="299.368" viewBox="0 0 437.764 299.368"><defs><style>.a{fill:url(#a);}</style><linearGradient id="a" x1="0.459" y1="0.944" x2="0.463" y2="0.047" gradientUnits="objectBoundingBox"><stop offset="0" stop-color="#0d0c0c"/><stop offset="0.632" stop-color="#1c1b1b"/><stop offset="1" stop-color="#1c1b1b"/></linearGradient></defs><path class="a" d="M436.98,177.38a2.037,2.037,0,0,0-.465-1.55V174.8c-2.323-25.829-16.723-49.592-37.628-60.956-1.394-.517-2.323-1.55-3.716-2.066h-.465a53.182,53.182,0,0,0-18.117-5.166,18.8,18.8,0,0,0-5.11-.517A64.8,64.8,0,0,0,375.2,74.581a4.266,4.266,0,0,0-.465-2.066c0-.517-.465-1.55-.465-2.066-2.323-16.531-9.291-32.028-20.44-42.876l-.465-.517-1.394-1.55c-20.44-20.663-50.635-26.862-77.578-6.716-12.543,9.3-20.9,23.246-24.621,37.71-8.362-20.147-22.3-37.194-39.95-47.009a79.308,79.308,0,0,0-43.2-9.3,82.137,82.137,0,0,0-39.95,15.5,19.791,19.791,0,0,1-3.252,2.066A87.612,87.612,0,0,0,96.009,52.368a91.706,91.706,0,0,0-5.574,16.014,87.579,87.579,0,0,0-25.55,5.682c-23.691,9.3-43.667,28.928-54.816,53.724A117.336,117.336,0,0,0,.314,184.1,111.806,111.806,0,0,0,33.3,256.934a81.319,81.319,0,0,0,22.3,16.531c18.117,8.265,31.124,12.914,51.1,11.365,10.684-1.033,23.227-4.649,34.376-9.815a20.979,20.979,0,0,0,3.252,3.1,50.263,50.263,0,0,0,16.723,12.4c16.259,7.232,22.762,9.3,40.415,8.782a44.221,44.221,0,0,0,13.936-2.583A68.11,68.11,0,0,0,243.732,283.8a86.532,86.532,0,0,0,16.259-16.531l.929,1.033c16.723,16.531,40.879,21.7,61.784,13.431,11.149-4.133,20.9-12.4,28.337-22.729a62.464,62.464,0,0,0,39.95-2.066C417.469,246.6,442.554,211.475,436.98,177.38Z" transform="translate(0 0)"/></svg>