<svg xmlns="http://www.w3.org/2000/svg" width="107" height="107" viewBox="0 0 107 107"><defs><style>.a{fill:#6b6b6b;}.b{fill:#a0a0a0;}.c{fill:#f39c12;}</style></defs><path class="a" d="M98.371,27.613H96.192A13.791,13.791,0,0,0,80.53,17.452,22.509,22.509,0,0,0,58.677,0,22.26,22.26,0,0,0,40.513,9.319a13.623,13.623,0,0,0-4.271-.69A13.863,13.863,0,0,0,23.449,17.28,13.824,13.824,0,0,0,10.808,27.613H8.629A8.627,8.627,0,0,0,0,36.242V88.016a8.627,8.627,0,0,0,8.629,8.629H31.065v6.9h-6.9V107H82.839v-3.452h-6.9v-6.9H98.371A8.627,8.627,0,0,0,107,88.016V36.242A8.627,8.627,0,0,0,98.371,27.613ZM8.629,31.065h1.726A13.819,13.819,0,0,0,24.161,44.871H34.516V41.419H24.161a10.355,10.355,0,1,1,0-20.71l1.769.086.388-1.294a10.427,10.427,0,0,1,9.923-7.421,10.279,10.279,0,0,1,4.228.906l1.359.6.8-1.273A18.952,18.952,0,0,1,77.446,19.8l.28,2.028,1.942-.626a10.551,10.551,0,0,1,3.15-.5,10.355,10.355,0,0,1,0,20.71H72.462v3.452H82.817A13.819,13.819,0,0,0,96.624,31.065h1.726a5.193,5.193,0,0,1,5.177,5.177v46.6H3.452v-46.6A5.193,5.193,0,0,1,8.629,31.065Zm63.855,72.484H34.516v-6.9H72.484ZM98.371,93.194H8.629a5.193,5.193,0,0,1-5.177-5.177V86.29h100.1v1.726A5.193,5.193,0,0,1,98.371,93.194Z"/><g transform="translate(13.806 6.909)"><path class="b" d="M240.623,39.009l2.438-2.438a15.533,15.533,0,0,0-21.961,0l2.438,2.438A12.109,12.109,0,0,1,240.623,39.009Z" transform="translate(-187.209 -32.025)"/><path class="b" d="M390.9,118.9A6.924,6.924,0,0,0,384,112v3.452a3.452,3.452,0,0,1,0,6.9v3.452A6.924,6.924,0,0,0,390.9,118.9Z" transform="translate(-314.968 -94.747)"/><path class="c" d="M230.9,288.953V280h-3.452v8.953a5.178,5.178,0,1,0,3.452,0Zm-1.726,6.58a1.726,1.726,0,1,1,1.726-1.726A1.731,1.731,0,0,1,229.177,295.532Z" transform="translate(-189.484 -226.505)"/><path class="c" d="M240,152h3.452v24.161H240Z" transform="translate(-202.032 -126.118)"/><path class="c" d="M307.452,184H304v27.613h17.582a5.177,5.177,0,1,0,0-3.452h-14.13Zm18.984,24.161a1.726,1.726,0,1,1-1.726,1.726A1.731,1.731,0,0,1,326.435,208.161Z" transform="translate(-252.226 -151.215)"/><path class="c" d="M304,152h3.452v3.452H304Z" transform="translate(-252.226 -126.118)"/><path class="c" d="M69.177,246.435a5.16,5.16,0,0,0,4.854-3.452H91.613V224H88.161v15.532H74.031a5.166,5.166,0,1,0-4.854,6.9Zm0-6.9a1.726,1.726,0,1,1-1.726,1.726A1.731,1.731,0,0,1,69.177,239.532Z" transform="translate(-64 -182.586)"/><path class="c" d="M176,152h3.452v12.081H176Z" transform="translate(-151.839 -126.118)"/></g></svg>