<?xml version="1.0" encoding="utf-8"?>
<!-- Generator: Adobe Illustrator 24.1.1, SVG Export Plug-In . SVG Version: 6.00 Build 0)  -->
<svg version="1.1" id="Capa_1" xmlns="http://www.w3.org/2000/svg" xmlns:xlink="http://www.w3.org/1999/xlink" x="0px" y="0px"
	 viewBox="0 0 100 100" style="enable-background:new 0 0 100 100;" xml:space="preserve">
<style type="text/css">
	.st0{fill:#141414;stroke:#141414;stroke-width:6;stroke-miterlimit:10;}
</style>
<g>
	<g>
		<path class="st0" d="M53,50l23.7-23.7c0.8-0.8,0.8-2.2,0-3c-0.8-0.8-2.2-0.8-3,0L50,47L26.3,23.2c-0.8-0.8-2.2-0.8-3,0
			c-0.8,0.8-0.8,2.2,0,3L47,50L23.3,73.7c-0.8,0.8-0.8,2.2,0,3c0.4,0.4,1,0.6,1.5,0.6c0.6,0,1.1-0.2,1.5-0.6L50,53l23.7,23.7
			c0.4,0.4,1,0.6,1.5,0.6c0.6,0,1.1-0.2,1.5-0.6c0.8-0.8,0.8-2.2,0-3L53,50z"/>
	</g>
</g>
<path class="st0" d="M92.9,7v85.9H7V7H92.9 M96.6,3.4H3.4v93.3h93.3V3.4L96.6,3.4z"/>
</svg>
