<svg xmlns="http://www.w3.org/2000/svg" width="20" height="16.638" viewBox="0 0 20 16.638"><defs><style>.a{opacity:0.73;}.b{fill:#141414;}</style></defs><g class="a" transform="translate(0 -41.346)"><g transform="translate(0 41.346)"><path class="b" d="M19.68,48.888l-7.223-7.223a1.1,1.1,0,0,0-1.548,0l-.656.656a1.086,1.086,0,0,0-.32.774,1.108,1.108,0,0,0,.32.783L14.467,48.1H1.08A1.068,1.068,0,0,0,0,49.177V50.1a1.109,1.109,0,0,0,1.08,1.124H14.515l-4.261,4.246a1.084,1.084,0,0,0,0,1.537l.656.654a1.1,1.1,0,0,0,1.548,0l7.223-7.223a1.1,1.1,0,0,0,0-1.554Z" transform="translate(0 -41.346)"/></g></g></svg>