<?xml version="1.0" encoding="utf-8"?>
<!-- Generator: Adobe Illustrator 24.1.1, SVG Export Plug-In . SVG Version: 6.00 Build 0)  -->
<svg version="1.1" id="Layer_1" xmlns="http://www.w3.org/2000/svg" xmlns:xlink="http://www.w3.org/1999/xlink" x="0px" y="0px"
	 viewBox="0 0 100 100" style="enable-background:new 0 0 100 100;" xml:space="preserve">
<style type="text/css">
	.st0{fill:#53D65C;stroke:#53D65C;stroke-width:6;stroke-miterlimit:10;}
</style>
<path class="st0" d="M42,68.8c-0.7,0-1.3-0.2-1.9-0.8L23.9,52c-1-1-1-2.7,0-3.8s2.7-1,3.8,0L42,62.5L72.4,32c1-1,2.7-1,3.8,0
	c1,1,1,2.7,0,3.8L43.8,68.1C43.3,68.6,42.6,68.8,42,68.8z"/>
<path class="st0" d="M92.6,7.4v85.3H7.4V7.4H92.6 M97,3H3V97H97V3L97,3z"/>
</svg>
