<svg xmlns="http://www.w3.org/2000/svg" width="26.667" height="20" viewBox="0 0 26.667 20"><defs><style>.a{fill:#fff;}</style></defs><g transform="translate(0 0)"><g transform="translate(0 0)"><path class="a" d="M7.11,65.623c3.66,3.1,10.082,8.553,11.969,10.253a1.115,1.115,0,0,0,1.613,0c1.889-1.7,8.311-7.155,11.971-10.255a.555.555,0,0,0,.078-.767A2.206,2.206,0,0,0,31,64H8.776a2.206,2.206,0,0,0-1.744.856A.555.555,0,0,0,7.11,65.623Z" transform="translate(-6.554 -64)"/><path class="a" d="M26.344,126.463a.553.553,0,0,0-.592.08c-4.059,3.441-9.239,7.851-10.869,9.32a2.25,2.25,0,0,1-3.1,0c-1.737-1.565-7.554-6.51-10.868-9.319a.556.556,0,0,0-.915.424v13.971a2.224,2.224,0,0,0,2.222,2.222H24.444a2.224,2.224,0,0,0,2.222-2.222V126.967A.555.555,0,0,0,26.344,126.463Z" transform="translate(0 -123.161)"/></g></g></svg>