<svg xmlns="http://www.w3.org/2000/svg" width="33.589" height="33.59" viewBox="0 0 33.589 33.59">
  <path id="Path_991" data-name="Path 991" d="M28.255,67.15a2.6,2.6,0,0,0-3.936,0c-.92.912-1.84,1.825-2.745,2.753a.542.542,0,0,1-.758.139c-.6-.325-1.229-.588-1.8-.943a28.545,28.545,0,0,1-6.882-6.263,16.3,16.3,0,0,1-2.467-3.951.566.566,0,0,1,.139-.727c.92-.889,1.817-1.8,2.722-2.714a2.614,2.614,0,0,0-.008-4.028c-.719-.727-1.438-1.438-2.157-2.165-.742-.742-1.477-1.492-2.227-2.227a2.62,2.62,0,0,0-3.936.008c-.928.912-1.817,1.848-2.76,2.745A4.481,4.481,0,0,0,.033,52.8a12.809,12.809,0,0,0,.99,5.513,33.5,33.5,0,0,0,5.946,9.9,36.8,36.8,0,0,0,12.186,9.534,17.624,17.624,0,0,0,6.75,1.964A4.947,4.947,0,0,0,30.149,78.1c.789-.881,1.678-1.686,2.513-2.528a2.63,2.63,0,0,0,.015-4.005Q30.474,69.35,28.255,67.15Z" transform="translate(-0.006 -46.137)" fill="#fff"/>
</svg>
