<svg xmlns="http://www.w3.org/2000/svg" width="809.37" height="515.184" viewBox="0 0 809.37 515.184"><defs><style>.a{fill:#ff941f;}</style></defs><path class="a" d="M807.921,305.255a3.34,3.34,0,0,0-.859-2.667V300.81c-4.294-44.449-30.919-85.342-69.569-104.9-2.577-.889-4.294-2.667-6.871-3.556h-.859c-10.307-4.445-21.472-8-33.5-8.89a37.251,37.251,0,0,0-9.448-.889,104.373,104.373,0,0,0,6.871-54.228,6.913,6.913,0,0,0-.859-3.556c0-.889-.859-2.667-.859-3.556-4.294-28.447-17.177-55.117-37.79-73.786l-.859-.889-2.577-2.667C612.957,8.334,557.13-2.334,507.315,32.337c-23.19,16-38.649,40-45.52,64.9-15.46-34.67-41.226-64.007-73.863-80.9a155.762,155.762,0,0,0-79.875-16A158.621,158.621,0,0,0,234.193,27c-1.718.889-3.435,2.667-6.012,3.556a153.151,153.151,0,0,0-50.674,59.562A150.626,150.626,0,0,0,167.2,117.679c-16.319.889-31.778,4.445-47.238,9.779-43.8,16-80.734,49.783-101.347,92.454C4.015,251.027-2,283.03.58,316.812A186.82,186.82,0,0,0,61.56,442.158a150.128,150.128,0,0,0,41.226,28.447c33.5,14.224,57.545,22.225,94.476,19.558,19.754-1.778,42.944-8,63.557-16.891a37.744,37.744,0,0,0,6.012,5.334c8.589,8.89,19.754,16.891,30.919,21.336,30.061,12.446,42.085,16,74.722,15.113,8.589,0,17.177-1.778,25.766-4.445a130.514,130.514,0,0,0,52.391-22.225,154.672,154.672,0,0,0,30.061-28.447l1.718,1.778c30.919,28.447,75.581,37.337,114.23,23.114,20.613-7.112,38.649-21.336,52.391-39.115a123.577,123.577,0,0,0,73.863-3.556C771.849,424.379,818.228,363.928,807.921,305.255Z" transform="translate(0 0)"/></svg>