<?xml version="1.0" encoding="utf-8"?>
<!-- Generator: Adobe Illustrator 16.0.0, SVG Export Plug-In . SVG Version: 6.00 Build 0)  -->
<!DOCTYPE svg PUBLIC "-//W3C//DTD SVG 1.1//EN" "http://www.w3.org/Graphics/SVG/1.1/DTD/svg11.dtd">
<svg version="1.1" id="Layer_1" xmlns="http://www.w3.org/2000/svg" xmlns:xlink="http://www.w3.org/1999/xlink" x="0px" y="0px"
	 width="64px" height="64px" viewBox="0 0 64 64" enable-background="new 0 0 64 64" xml:space="preserve">
<g>
	<g>
		<g>
			<path fill="#FFFFFF" d="M32,0.001C14.355,0.001,0,14.356,0,32c0,17.645,14.355,31.998,32,31.998c17.645,0,32-14.354,32-31.998
				C64,14.356,49.645,0.001,32,0.001z M32,58.18C17.563,58.18,5.818,46.436,5.818,32C5.818,17.564,17.563,5.82,32,5.82
				S58.182,17.564,58.182,32C58.182,46.436,46.437,58.18,32,58.18z"/>
			<path fill="#FFFFFF" d="M32,25.214c-1.606,0-2.909,1.302-2.909,2.909v19.391c0,1.606,1.303,2.908,2.909,2.908
				s2.909-1.302,2.909-2.908V28.123C34.909,26.517,33.606,25.214,32,25.214z"/>
			<path fill="#FFFFFF" d="M32,13.578c-0.766,0-1.515,0.31-2.058,0.851c-0.541,0.541-0.852,1.292-0.852,2.058
				s0.311,1.515,0.852,2.058c0.541,0.541,1.292,0.851,2.058,0.851c0.766,0,1.515-0.31,2.058-0.851
				c0.541-0.543,0.852-1.292,0.852-2.058s-0.311-1.517-0.852-2.058C33.515,13.888,32.766,13.578,32,13.578z"/>
		</g>
	</g>
</g>
</svg>
