<svg xmlns="http://www.w3.org/2000/svg" width="110.4" height="110.4" viewBox="0 0 110.4 110.4"><defs><style>.a{fill:#6b6b6b;}.b{fill:#f39c12;}</style></defs><g transform="translate(-1 -1)"><path class="a" d="M107.1,34.693A55.285,55.285,0,0,0,77.706,5.3a55.917,55.917,0,0,0-43.013,0A55.285,55.285,0,0,0,5.3,34.693a55.917,55.917,0,0,0,0,43.013A55.285,55.285,0,0,0,34.693,107.1a55.917,55.917,0,0,0,43.013,0A55.285,55.285,0,0,0,107.1,77.706a55.917,55.917,0,0,0,0-43.013ZM16.592,86.667A49.963,49.963,0,0,1,56.2,6.2,50.73,50.73,0,0,1,94.195,23.582ZM56.2,106.2A49.66,49.66,0,0,1,20,90.61L97.421,27.525A50.088,50.088,0,0,1,56.2,106.2Z"/><g transform="translate(25.016 30.571)"><path class="b" d="M45.751,24.5,43.6,26.292h.358A1.8,1.8,0,0,0,45.751,24.5Z" transform="translate(8.732 -11.955)"/><path class="b" d="M49.539,17.5c-3.584,0-6.452,3.226-6.452,7.169v9.5a4.962,4.962,0,0,0-1.613-.179H23.552A6.214,6.214,0,0,0,17.1,39.9V62.126l5.2-4.3V39.9a1.367,1.367,0,0,1,1.255-.717H41.474c.9,0,1.255.538,1.255.717v1.255l5.556-4.481V24.848c0-1.075.717-1.971,1.255-1.971H65.131l5.377-4.3a6.042,6.042,0,0,0-3.047-.9L49.539,17.5Z" transform="translate(-12.261 -17.5)"/><path class="b" d="M42.871,38.869H46.1A1.989,1.989,0,0,0,48.069,36.9V33.671A1.989,1.989,0,0,0,46.1,31.7H42.871A1.989,1.989,0,0,0,40.9,33.671V36.9A1.989,1.989,0,0,0,42.871,38.869Z" transform="translate(6.593 -6.251)"/><path class="b" d="M42.8,33.769h3.226A1.989,1.989,0,0,0,48,31.8V28.571A1.989,1.989,0,0,0,46.028,26.6H43.161L41.01,28.392V31.8A1.742,1.742,0,0,0,42.8,33.769Z" transform="translate(6.662 -10.291)"/><path class="b" d="M21.1,38.692v1.971L25.76,36.9H22.892A1.8,1.8,0,0,0,21.1,38.692Z" transform="translate(-9.092 -2.131)"/><path class="b" d="M42.871,43.969H46.1A1.989,1.989,0,0,0,48.069,42V38.771A1.989,1.989,0,0,0,46.1,36.8H42.871A1.989,1.989,0,0,0,40.9,38.771V42A1.989,1.989,0,0,0,42.871,43.969Z" transform="translate(6.593 -2.21)"/><path class="b" d="M26.2,31.8H22.971A1.989,1.989,0,0,0,21,33.771V37a1.989,1.989,0,0,0,1.971,1.971H26.2A1.989,1.989,0,0,0,28.169,37V33.771A1.989,1.989,0,0,0,26.2,31.8Z" transform="translate(-9.171 -6.171)"/><path class="b" d="M40.7,21.6H37.471A1.989,1.989,0,0,0,35.5,23.571V26.8a1.989,1.989,0,0,0,1.971,1.971h1.792l3.405-2.688v-2.33A2.034,2.034,0,0,0,40.7,21.6Z" transform="translate(2.316 -14.252)"/><path class="b" d="M40.9,23.5v.358l2.688-2.151h-.717A1.742,1.742,0,0,0,40.9,23.5Z" transform="translate(6.593 -14.183)"/><path class="b" d="M28.271,31.8A1.989,1.989,0,0,0,26.3,33.771V37h0l6.093-4.839a1.616,1.616,0,0,0-.9-.179L28.271,31.8Z" transform="translate(-4.973 -6.171)"/><path class="b" d="M22.892,49.069h3.226A1.989,1.989,0,0,0,28.09,47.1V43.871A1.989,1.989,0,0,0,26.118,41.9h-.9L21.1,45.305v1.613C21.1,48.173,21.817,49.069,22.892,49.069Z" transform="translate(-9.092 1.83)"/><path class="b" d="M28.192,43.89h3.226a1.989,1.989,0,0,0,1.971-1.971V38.692A1.78,1.78,0,0,0,32.135,36.9L26.4,41.56v.358A1.963,1.963,0,0,0,28.192,43.89Z" transform="translate(-4.894 -2.131)"/><path class="b" d="M42.871,49.069H46.1A1.989,1.989,0,0,0,48.069,47.1V43.871A1.989,1.989,0,0,0,46.1,41.9H42.871A1.989,1.989,0,0,0,40.9,43.871V47.1A1.989,1.989,0,0,0,42.871,49.069Z" transform="translate(6.593 1.83)"/><path class="b" d="M78.023,73.274H76.052V21.3l-5.2,4.3V73.453H50.423V42.09L44.867,46.57v26.7H24.436V63.238l-5.377,4.3v5.735H16.371a1.971,1.971,0,1,0,0,3.943H78.023a1.971,1.971,0,0,0,0-3.943Z" transform="translate(-14.4 -14.49)"/><path class="b" d="M28.271,42.079A1.989,1.989,0,0,0,26.3,44.051v3.226a1.989,1.989,0,0,0,1.971,1.971H31.5a1.989,1.989,0,0,0,1.971-1.971V43.871A1.989,1.989,0,0,0,31.5,41.9l-3.226.179Z" transform="translate(-4.973 1.83)"/><path class="b" d="M37.471,49.069H40.7A1.989,1.989,0,0,0,42.669,47.1V43.871A1.989,1.989,0,0,0,40.7,41.9H37.471A1.989,1.989,0,0,0,35.5,43.871V47.1A2.275,2.275,0,0,0,37.471,49.069Z" transform="translate(2.316 1.83)"/><path class="b" d="M41.243,30.155V28.9L37.3,32.126h1.971A2.275,2.275,0,0,0,41.243,30.155Z" transform="translate(3.741 -8.469)"/><path class="b" d="M37.471,38.869H40.7A1.989,1.989,0,0,0,42.669,36.9V33.671A1.989,1.989,0,0,0,40.7,31.7H37.471A1.989,1.989,0,0,0,35.5,33.671V36.9A2.275,2.275,0,0,0,37.471,38.869Z" transform="translate(2.316 -6.251)"/><path class="b" d="M37.471,43.969H40.7A1.989,1.989,0,0,0,42.669,42V38.771A1.989,1.989,0,0,0,40.7,36.8H37.471A1.989,1.989,0,0,0,35.5,38.771V42A2.275,2.275,0,0,0,37.471,43.969Z" transform="translate(2.316 -2.21)"/></g></g></svg>