<?xml version="1.0" encoding="utf-8"?>
<!-- Generator: Adobe Illustrator 24.1.1, SVG Export Plug-In . SVG Version: 6.00 Build 0)  -->
<svg version="1.1" id="Capa_1" xmlns="http://www.w3.org/2000/svg" xmlns:xlink="http://www.w3.org/1999/xlink" x="0px" y="0px"
	 viewBox="0 0 512 380" style="enable-background:new 0 0 512 380;" xml:space="preserve">
<style type="text/css">
	.st0{fill:#6B6B6B;}
</style>
<g>
	<path class="st0" d="M210.5,91.5c-41.8,0-75.8,34-75.8,75.8s34,75.8,75.8,75.8s75.8-34,75.8-75.8S252.3,91.5,210.5,91.5z
		 M270.7,159.7h-29.9c-0.7-18.2-3.6-36.3-9.2-49.3C252.3,118.1,267.8,136.9,270.7,159.7z M210.5,227.9c-0.7,0-4.9-2.6-8.9-14.8
		c-3.5-10.4-5.6-23.7-6.1-38.3h30c-0.5,14.6-2.7,27.9-6.1,38.3C215.4,225.3,211.2,227.9,210.5,227.9L210.5,227.9z M195.5,159.7
		c0.5-14.6,2.7-27.9,6.1-38.3c4-12.2,8.2-14.8,8.9-14.8c0.7,0,4.9,2.6,8.9,14.8c3.5,10.4,5.6,23.7,6.1,38.3H195.5z M189.6,110.3
		c-5.6,13-8.6,31.1-9.2,49.3h-29.9C153.2,136.9,168.8,118.1,189.6,110.3z M150.3,174.8h29.9c0.7,18.2,3.6,36.3,9.2,49.3
		C168.8,216.5,153.2,197.6,150.3,174.8z M231.4,224.2c5.6-13,8.6-31.1,9.2-49.3h29.9C267.8,197.6,252.3,216.5,231.4,224.2z"/>
	<path class="st0" d="M375.1,230.1l-18.7-18.7l10.7-10.7c3.8-3.8,2.6-10.2-2.3-12.4l-56.3-24.1c-2.9-1.2-6.1-0.6-8.3,1.6
		c-2.2,2.2-2.8,5.5-1.6,8.3l24.1,56.2c2.1,4.9,8.6,6.1,12.4,2.3l10.7-10.7l18.7,18.7c3,3,7.7,3,10.7,0
		C378,237.9,378,233,375.1,230.1L375.1,230.1z M332,214.2l-12.3-28.6l28.6,12.3l-8.2,8.2l0,0l0,0L332,214.2z"/>
	<circle class="st0" cx="256" cy="326.4" r="7.6"/>
	<path class="st0" d="M442.4,273.4h-15.2V53.6c0-4.2-3.4-7.6-7.6-7.6H92.3c-4.2,0-7.6,3.4-7.6,7.6v219.8H69.6
		c-4.2,0-7.6,3.4-7.6,7.6C62,310.2,85.8,334,115,334h106.9c4.2,0,7.6-3.4,7.6-7.6s-3.4-7.6-7.6-7.6H115c-18.3,0-33.6-13-37.1-30.3
		h356.2c-3.5,17.3-18.8,30.3-37.1,30.3H290.1c-4.2,0-7.6,3.4-7.6,7.6s3.4,7.6,7.6,7.6H397c29.3,0,53.1-23.8,53.1-53.1
		C450,276.8,446.6,273.4,442.4,273.4z M99.9,61.2h312.3v212.2H99.9V61.2z"/>
</g>
</svg>
