<svg xmlns="http://www.w3.org/2000/svg" width="110" height="112.484" viewBox="0 0 110 112.484"><defs><style>.a{fill:#f39c12;}.b{fill:#6b6b6b;}</style></defs><g transform="translate(-9 -10)"><path class="a" d="M117.226,14a1.676,1.676,0,0,0-1.774,1.774,1.774,1.774,0,0,0,3.548,0A1.676,1.676,0,0,0,117.226,14ZM24.968,21.1a1.774,1.774,0,1,0,1.774,1.774A1.676,1.676,0,0,0,24.968,21.1Zm78.065,0a1.774,1.774,0,1,0,1.774,1.774A1.676,1.676,0,0,0,103.032,21.1Zm14.194,0A1.774,1.774,0,1,0,119,22.871,1.676,1.676,0,0,0,117.226,21.1Zm-92.258,7.1a1.774,1.774,0,1,0,1.774,1.774A1.676,1.676,0,0,0,24.968,28.194Zm78.065,0a1.774,1.774,0,1,0,1.774,1.774A1.676,1.676,0,0,0,103.032,28.194Zm-92.258,7.1a1.774,1.774,0,1,0,0,3.548,1.774,1.774,0,1,0,0-3.548Zm14.194,0a1.774,1.774,0,1,0,1.774,1.774A1.676,1.676,0,0,0,24.968,35.29Zm78.065,0a1.774,1.774,0,1,0,1.774,1.774A1.676,1.676,0,0,0,103.032,35.29Zm14.194,0A1.774,1.774,0,1,0,119,37.065,1.676,1.676,0,0,0,117.226,35.29Zm-106.452,7.1a1.774,1.774,0,1,0,0,3.548,1.774,1.774,0,1,0,0-3.548Zm7.1,0a1.774,1.774,0,0,0,0,3.548,1.774,1.774,0,1,0,0-3.548Zm7.1,0a1.774,1.774,0,1,0,1.774,1.774A1.676,1.676,0,0,0,24.968,42.387Zm78.065,0a1.774,1.774,0,1,0,1.774,1.774A1.676,1.676,0,0,0,103.032,42.387Zm7.1,0a1.774,1.774,0,1,0,1.774,1.774A1.676,1.676,0,0,0,110.129,42.387Zm7.1,0A1.774,1.774,0,1,0,119,44.161,1.676,1.676,0,0,0,117.226,42.387Zm-106.452,7.1a1.774,1.774,0,1,0,0,3.548,1.774,1.774,0,1,0,0-3.548Zm7.1,0a1.774,1.774,0,1,0,0,3.548,1.774,1.774,0,1,0,0-3.548Zm7.1,0a1.774,1.774,0,1,0,1.774,1.774A1.676,1.676,0,0,0,24.968,49.484Zm78.065,0a1.774,1.774,0,1,0,1.774,1.774A1.676,1.676,0,0,0,103.032,49.484Zm7.1,0a1.774,1.774,0,1,0,1.774,1.774A1.676,1.676,0,0,0,110.129,49.484Zm7.1,0A1.774,1.774,0,1,0,119,51.258,1.676,1.676,0,0,0,117.226,49.484Z" transform="translate(0 3.097)"/><path class="a" d="M52.784,43.913,50.3,43.381V31.671c3.548.355,6.032,2.839,6.21,5.855h5.677c-.177-6.032-4.79-10.468-11.887-11V22.8H46.574v3.726c-7.274.71-11.887,4.79-11.887,11.177,0,5.323,3.371,9.048,9.4,10.468l2.484.71V61.3c-4.081-.532-6.742-2.661-6.919-6.032H33.8c0,6.387,4.968,10.645,12.774,11.177v3.548H50.3V66.445c7.984-.71,12.6-4.79,12.6-11.532C62.9,49.058,59.7,45.687,52.784,43.913Zm-6.21-1.419c-3.9-.71-6.032-2.661-6.032-5.5,0-3.016,2.484-5.323,6.032-5.5ZM50.3,61.123V49.413c4.613.887,6.742,2.839,6.742,6.032C57.042,58.816,54.558,60.945,50.3,61.123Z" transform="translate(16.2 9.91)"/><path class="b" d="M30.29,10V59.677H9v7.806l55,55,55-55V59.677H97.71V13.548H94.161V63.226h21.29v2.839L64,117.516,12.548,66.065V63.226h21.29V10Z" transform="translate(0)"/></g></svg>