<svg xmlns="http://www.w3.org/2000/svg" width="193.378" height="62" viewBox="0 0 193.378 62"><g transform="translate(-19 -5)"><path d="M18.129-9.5A12.017,12.017,0,0,1,17.09-4.348,7.825,7.825,0,0,1,14.116-.93,8.226,8.226,0,0,1,9.68.273,8.282,8.282,0,0,1,5.264-.916a7.9,7.9,0,0,1-3.008-3.4,11.673,11.673,0,0,1-1.08-5.079v-.984a11.954,11.954,0,0,1,1.06-5.175,7.889,7.889,0,0,1,2.994-3.432,8.236,8.236,0,0,1,4.423-1.2,8.236,8.236,0,0,1,4.423,1.2,7.889,7.889,0,0,1,2.994,3.432,11.92,11.92,0,0,1,1.06,5.161Zm-4.156-.9a8.377,8.377,0,0,0-1.121-4.758,3.653,3.653,0,0,0-3.2-1.627,3.655,3.655,0,0,0-3.186,1.606,8.281,8.281,0,0,0-1.135,4.71V-9.5a8.482,8.482,0,0,0,1.121,4.73A3.644,3.644,0,0,0,9.68-3.09a3.611,3.611,0,0,0,3.172-1.62,8.432,8.432,0,0,0,1.121-4.724ZM20.306,0V-11.895H18.1v-2.9h2.2v-1.258a5.107,5.107,0,0,1,1.429-3.862,5.533,5.533,0,0,1,4-1.374,9.237,9.237,0,0,1,2.01.273L27.7-17.951a5.037,5.037,0,0,0-1.2-.123q-2.229,0-2.229,2.092v1.189h4.867v-.684a5.548,5.548,0,0,1,1.716-4.3,6.9,6.9,0,0,1,4.765-1.511,16.048,16.048,0,0,1,4.5.807l-.574,3.268a17.328,17.328,0,0,0-2.085-.513,10.343,10.343,0,0,0-1.593-.116q-2.762,0-2.762,2.447v.6h2.912v2.9H33.1V0H29.138V-11.895H24.271V0ZM41.948,0H37.983V-14.793h3.965Zm7.8-2.912a2.591,2.591,0,0,0,1.777-.6,2.108,2.108,0,0,0,.711-1.6h3.705a5.068,5.068,0,0,1-.82,2.755A5.413,5.413,0,0,1,52.909-.417a6.91,6.91,0,0,1-3.1.69,6.422,6.422,0,0,1-5-2.017,7.98,7.98,0,0,1-1.832-5.571v-.26a7.889,7.889,0,0,1,1.818-5.455,6.347,6.347,0,0,1,4.99-2.037,6.222,6.222,0,0,1,4.45,1.579,5.591,5.591,0,0,1,1.7,4.2H52.232a2.715,2.715,0,0,0-.711-1.876,2.37,2.37,0,0,0-1.8-.722,2.38,2.38,0,0,0-2.085,1.006,5.832,5.832,0,0,0-.7,3.266V-7.2a5.907,5.907,0,0,0,.7,3.286A2.41,2.41,0,0,0,49.744-2.912ZM63.378.273a7.262,7.262,0,0,1-5.3-2,7.1,7.1,0,0,1-2.044-5.318v-.383a8.936,8.936,0,0,1,.861-3.985,6.321,6.321,0,0,1,2.44-2.707,6.85,6.85,0,0,1,3.6-.95,6.139,6.139,0,0,1,4.778,1.914,7.778,7.778,0,0,1,1.743,5.428v1.613h-9.42A3.671,3.671,0,0,0,61.2-3.787a3.492,3.492,0,0,0,2.44.875,4.265,4.265,0,0,0,3.568-1.654l1.941,2.174A5.931,5.931,0,0,1,66.741-.431,7.9,7.9,0,0,1,63.378.273Zm-.451-12.154a2.469,2.469,0,0,0-1.907.8,4.124,4.124,0,0,0-.937,2.28h5.5v-.316a2.942,2.942,0,0,0-.711-2.039A2.547,2.547,0,0,0,62.927-11.881Z" transform="translate(87 51)" fill="#f39c12"/><path d="M1.968,0V-22.039h7.72A10.136,10.136,0,0,1,15.772-20.5,5.254,5.254,0,0,1,17.846-16a4.979,4.979,0,0,1-.833,2.853A4.809,4.809,0,0,1,14.7-11.337a4.653,4.653,0,0,1,2.672,1.71,5.057,5.057,0,0,1,.976,3.148,5.816,5.816,0,0,1-2.028,4.813A9.131,9.131,0,0,1,10.535,0ZM6.509-9.6v5.949H10.4A3.754,3.754,0,0,0,12.9-4.412a2.621,2.621,0,0,0,.9-2.112q0-3.027-3.133-3.073Zm0-3.209h3.36q3.436-.061,3.436-2.74a2.532,2.532,0,0,0-.87-2.157,4.578,4.578,0,0,0-2.747-.658H6.509ZM37.286-7.341a7.8,7.8,0,0,1-2.626,5.6A9.223,9.223,0,0,1,28.416.3a8.293,8.293,0,0,1-6.668-2.853Q19.318-5.4,19.318-10.384v-1.347a13.211,13.211,0,0,1,1.12-5.6,8.394,8.394,0,0,1,3.2-3.716,8.968,8.968,0,0,1,4.836-1.294A8.985,8.985,0,0,1,34.622-20.3a8.381,8.381,0,0,1,2.694,5.737H32.775a4.6,4.6,0,0,0-1.188-3.1,4.4,4.4,0,0,0-3.111-.961,3.858,3.858,0,0,0-3.4,1.627,9.119,9.119,0,0,0-1.158,5.048v1.665A9.76,9.76,0,0,0,25-5.056a3.787,3.787,0,0,0,3.413,1.65,4.483,4.483,0,0,0,3.141-.961,4.341,4.341,0,0,0,1.188-2.974Zm5.756-.424V0H38.5V-22.039h8.6a9.947,9.947,0,0,1,4.367.908,6.693,6.693,0,0,1,2.9,2.581,7.2,7.2,0,0,1,1.014,3.807,6.328,6.328,0,0,1-2.218,5.109,9.236,9.236,0,0,1-6.138,1.869Zm0-3.678H47.1a3.989,3.989,0,0,0,2.747-.848,3.083,3.083,0,0,0,.946-2.422,3.635,3.635,0,0,0-.954-2.619A3.562,3.562,0,0,0,47.2-18.361H43.042Z" transform="translate(157 51)" fill="#9a9a9a"/><g transform="translate(12 -12)"><g transform="translate(7 17)"><path d="M0,0H62V62H0Z" fill="none"/><path d="M49.988,19.6a19.356,19.356,0,0,0-36.167-5.167,15.494,15.494,0,0,0,1.679,30.9H49.083a12.88,12.88,0,0,0,.9-25.73Zm-.9,20.563H15.5a10.333,10.333,0,1,1,0-20.667h1.834a14.206,14.206,0,0,1,27.874,3.875v1.292h3.875a7.75,7.75,0,0,1,0,15.5Z" transform="translate(0 6.333)" fill="#9a9a9a"/></g></g><g transform="translate(39 31)"><path d="M0,0H24V24H0Z" fill="none"/><path d="M12,7V3H2V21H22V7ZM6,19H4V17H6Zm0-4H4V13H6Zm0-4H4V9H6ZM6,7H4V5H6Zm4,12H8V17h2Zm0-4H8V13h2Zm0-4H8V9h2Zm0-4H8V5h2ZM20,19H12V17h2V15H12V13h2V11H12V9h8Zm-2-8H16v2h2Zm0,4H16v2h2Z" fill="#f39c12"/></g></g></svg>