<svg xmlns="http://www.w3.org/2000/svg" width="114.329" height="114.333" viewBox="0 0 114.329 114.333"><defs><style>.a{fill:#6b6b6b;}</style></defs><g transform="translate(-0.007)"><g transform="translate(0.007)"><path class="a" d="M92.456,33.217a2.233,2.233,0,0,0,2.233-2.233V6.7a6.707,6.707,0,0,0-6.7-6.7H6.706a6.707,6.707,0,0,0-6.7,6.7V107.633a6.707,6.707,0,0,0,6.7,6.7H87.989a6.707,6.707,0,0,0,6.7-6.7V91.182a2.233,2.233,0,0,0-4.466,0v16.451a2.236,2.236,0,0,1-2.233,2.233H6.706a2.236,2.236,0,0,1-2.233-2.233V6.7A2.236,2.236,0,0,1,6.706,4.466H87.989A2.236,2.236,0,0,1,90.222,6.7V30.984A2.233,2.233,0,0,0,92.456,33.217Z" transform="translate(-0.007)"/></g><g transform="translate(26.804 12.059)"><path class="a" d="M140.551,54a20.534,20.534,0,0,0-14.095,35.476,2.207,2.207,0,0,0,.24.223,20.506,20.506,0,0,0,27.709,0,2.229,2.229,0,0,0,.24-.223A20.534,20.534,0,0,0,140.551,54Zm0,36.622a15.992,15.992,0,0,1-9.712-3.275,11.165,11.165,0,0,1,19.424,0A15.992,15.992,0,0,1,140.551,90.622Zm-3.573-16.971V72.2a3.573,3.573,0,1,1,7.146,0v1.451a3.573,3.573,0,0,1-7.146,0Zm16.511,10.425a15.492,15.492,0,0,0-6.579-5.515,8,8,0,0,0,1.68-4.91V72.2a8.039,8.039,0,1,0-16.078,0v1.451a8,8,0,0,0,1.68,4.91,15.492,15.492,0,0,0-6.579,5.515,16.078,16.078,0,1,1,25.877,0Z" transform="translate(-120.007 -54)"/></g><g transform="translate(45.115 97.808)"><path class="a" d="M216.3,438H204.24a2.233,2.233,0,0,0,0,4.466H216.3a2.233,2.233,0,0,0,0-4.466Z" transform="translate(-202.007 -438)"/></g><g transform="translate(25.464 85.303)"><path class="a" d="M147.949,382H116.24a2.233,2.233,0,0,0,0,4.466h31.709a2.233,2.233,0,0,0,0-4.466Z" transform="translate(-114.007 -382)"/></g><g transform="translate(25.464 72.798)"><path class="a" d="M147.949,326H116.24a2.233,2.233,0,0,0,0,4.466h31.709a2.233,2.233,0,0,0,0-4.466Z" transform="translate(-114.007 -326)"/></g><g transform="translate(15.924 60.293)"><path class="a" d="M75.1,270.654a2.231,2.231,0,1,0,.655,1.579A2.25,2.25,0,0,0,75.1,270.654Z" transform="translate(-71.287 -270)"/></g><g transform="translate(15.924 72.798)"><path class="a" d="M75.1,326.654a2.231,2.231,0,1,0,.655,1.579A2.254,2.254,0,0,0,75.1,326.654Z" transform="translate(-71.287 -326)"/></g><g transform="translate(15.924 85.303)"><path class="a" d="M75.1,382.654a2.231,2.231,0,1,0,.655,1.579A2.254,2.254,0,0,0,75.1,382.654Z" transform="translate(-71.287 -382)"/></g><g transform="translate(25.464 60.293)"><path class="a" d="M147.949,270H116.24a2.233,2.233,0,0,0,0,4.466h31.709a2.233,2.233,0,0,0,0-4.466Z" transform="translate(-114.007 -270)"/></g><g transform="translate(66.459 27.841)"><path class="a" d="M340.779,125.936a9.379,9.379,0,0,0-12.812,3.433l-28.1,48.672a2.236,2.236,0,0,0-.285.869L297.6,196.628a2.233,2.233,0,0,0,3.543,2.046L315.5,188.1a2.229,2.229,0,0,0,.61-.682l28.1-48.672A9.39,9.39,0,0,0,340.779,125.936Zm-38.172,66.115,1.033-9.252,6.463,3.731Zm10.752-8.8-8.509-4.913L327.4,139.282l8.509,4.913Zm26.984-46.739-2.2,3.812-8.509-4.913,2.2-3.812a4.913,4.913,0,0,1,8.509,4.913Z" transform="translate(-297.589 -124.675)"/></g></g></svg>