<svg xmlns="http://www.w3.org/2000/svg" width="97.667" height="114.692" viewBox="0 0 97.667 114.692"><defs><style>.a{fill:#6b6b6b;}</style></defs><g transform="translate(0 0.001)"><path class="a" d="M97.553,31.118l0-.089c-.05-1.1-.083-2.267-.1-3.564A12.156,12.156,0,0,0,86,15.556c-13.187-.736-23.388-5.036-32.1-13.531l-.074-.071a7.34,7.34,0,0,0-9.976,0l-.074.071c-8.716,8.5-18.917,12.8-32.1,13.532A12.155,12.155,0,0,0,.223,27.466C.2,28.754.17,29.919.12,31.029l-.005.207C-.142,44.683-.46,61.418,5.138,76.607A57.756,57.756,0,0,0,18.994,98.19c6.965,6.8,16.088,12.194,27.116,16.039a8.4,8.4,0,0,0,1.111.3,8.208,8.208,0,0,0,3.227,0,8.424,8.424,0,0,0,1.116-.3c11.014-3.852,20.127-9.251,27.086-16.047A57.837,57.837,0,0,0,92.507,76.592C98.126,61.356,97.809,44.59,97.553,31.118ZM86.192,74.263c-5.9,16.01-17.958,27-36.849,33.611a1.691,1.691,0,0,1-.213.058,1.51,1.51,0,0,1-.591,0,1.678,1.678,0,0,1-.212-.057C29.415,101.28,17.354,90.291,11.453,74.281c-5.16-14-4.868-29.363-4.61-42.916l0-.075c.053-1.165.087-2.385.107-3.725a5.4,5.4,0,0,1,5.092-5.288,59.047,59.047,0,0,0,20.042-4.408A52.435,52.435,0,0,0,48.418,6.9a.621.621,0,0,1,.833,0A52.454,52.454,0,0,0,65.584,17.868a59.05,59.05,0,0,0,20.043,4.408,5.4,5.4,0,0,1,5.091,5.289c.02,1.347.055,2.567.108,3.724C91.082,44.858,91.367,60.232,86.192,74.263Zm0,0" transform="translate(0 0)"/><path class="a" d="M118.981,128.41a28.583,28.583,0,1,0,28.583,28.583A28.615,28.615,0,0,0,118.981,128.41Zm0,50.436a21.853,21.853,0,1,1,21.852-21.853A21.878,21.878,0,0,1,118.981,178.846Zm0,0" transform="translate(-70.148 -99.646)"/><path class="a" d="M176.3,212.978,163.02,226.253l-3.6-3.6a3.365,3.365,0,0,0-4.759,4.758l5.983,5.983a3.365,3.365,0,0,0,4.758,0l15.656-15.656a3.365,3.365,0,0,0-4.759-4.758Zm0,0" transform="translate(-119.249 -164.504)"/></g></svg>