<?xml version="1.0" encoding="utf-8"?>
<!-- Generator: Adobe Illustrator 16.0.0, SVG Export Plug-In . SVG Version: 6.00 Build 0)  -->
<!DOCTYPE svg PUBLIC "-//W3C//DTD SVG 1.1//EN" "http://www.w3.org/Graphics/SVG/1.1/DTD/svg11.dtd">
<svg version="1.1" id="Capa_1" xmlns="http://www.w3.org/2000/svg" xmlns:xlink="http://www.w3.org/1999/xlink" x="0px" y="0px"
	 width="64px" height="64px" viewBox="0 0 64 64" enable-background="new 0 0 64 64" xml:space="preserve">
<path fill="#FFFFFF" d="M54.627,9.374C48.579,3.327,40.553,0,32,0C23.448,0,15.421,3.327,9.374,9.374S0,23.448,0,32
	c0,8.553,3.327,16.579,9.374,22.627C15.421,60.674,23.448,64,32,64c8.553,0,16.579-3.326,22.627-9.373
	C60.674,48.579,64,40.553,64,32C64,23.448,60.674,15.421,54.627,9.374z M52.055,11.947c10.5,10.499,11.021,27.25,1.579,38.381
	L34.843,31.509l-2.572-2.572L13.687,10.353C18.804,6.009,25.222,3.637,32,3.637C39.568,3.637,46.693,6.587,52.055,11.947z
	 M11.946,52.055C1.191,41.299,0.9,23.985,11.066,12.872c0.009,0.01,0.015,0.021,0.024,0.03l18.607,18.607l2.559,2.572l18.864,18.863
	c-5.242,4.794-11.983,7.42-19.121,7.42C24.431,60.364,17.307,57.415,11.946,52.055z"/>
</svg>
