<?xml version="1.0" encoding="utf-8"?>
<!-- Generator: Adobe Illustrator 16.0.0, SVG Export Plug-In . SVG Version: 6.00 Build 0)  -->
<!DOCTYPE svg PUBLIC "-//W3C//DTD SVG 1.1//EN" "http://www.w3.org/Graphics/SVG/1.1/DTD/svg11.dtd">
<svg version="1.1" id="Capa_1" xmlns="http://www.w3.org/2000/svg" xmlns:xlink="http://www.w3.org/1999/xlink" x="0px" y="0px"
	 width="64px" height="64px" viewBox="0 0 64 64" enable-background="new 0 0 64 64" xml:space="preserve">
<g>
	<g>
		<path fill="#FFFFFF" d="M32,0C14.327,0,0,14.327,0,32c0,17.673,14.327,32,32,32c17.673,0,32-14.327,32-32
			C63.98,14.335,49.665,0.019,32,0z M32,59.429C16.852,59.429,4.571,47.148,4.571,32S16.852,4.571,32,4.571S59.429,16.852,59.429,32
			C59.412,47.142,47.142,59.412,32,59.429z"/>
	</g>
</g>
<g>
	<g>
		<path fill="#FFFFFF" d="M49.56,18.956c-0.886-0.855-2.29-0.855-3.176,0l0,0L25.143,40.196l-7.527-7.526
			c-0.877-0.908-2.324-0.934-3.232-0.057c-0.908,0.877-0.933,2.324-0.056,3.232c0.019,0.019,0.037,0.037,0.056,0.056l9.143,9.144
			c0.893,0.893,2.339,0.893,3.232,0l22.856-22.857C50.493,21.279,50.468,19.833,49.56,18.956z"/>
	</g>
</g>
</svg>
