<svg xmlns="http://www.w3.org/2000/svg" width="117.963" height="118.236" viewBox="0 0 117.963 118.236"><defs><style>.a{fill:#6b6b6b;}</style></defs><g transform="translate(-0.572)"><g transform="translate(0.574 19.07)"><path class="a" d="M96.395,163.909,91.98,150.663A13.349,13.349,0,0,0,81.7,141.752l-12.745-2.319v-.988a19.193,19.193,0,0,0,5.685-5.048h3.85a5.728,5.728,0,0,0,5.721-5.721V104.791a24.791,24.791,0,0,0-49.583,0v13.349a7.641,7.641,0,0,0,6.082,7.47,19.106,19.106,0,0,0,9.175,12.834v.988l-12.747,2.319a13.347,13.347,0,0,0-10.275,8.912l-.763,2.29-6.5-6.5a1.911,1.911,0,0,1,0-2.7l7.533-7.531L13,122.09,4.489,130.6a13.349,13.349,0,0,0,0,18.878l25.774,25.773a13.343,13.343,0,0,0,18.819.057l9.289-8.511-2.9-2.891ZM80.4,127.676a1.909,1.909,0,0,1-1.907,1.907h-1.6a18.941,18.941,0,0,0,1.243-3.972,7.555,7.555,0,0,0,2.267-.9Zm-1.907-6.251v-6.568a3.781,3.781,0,0,1,0,6.568Zm-38.141,0a3.781,3.781,0,0,1,0-6.568Zm0-12.819v2.178a7.564,7.564,0,0,0-1.907.79v-6.781a20.977,20.977,0,1,1,41.955,0v6.781a7.494,7.494,0,0,0-1.907-.79v-2.178H76.587a20.982,20.982,0,0,1-14.93-6.185l-2.233-2.233-2.233,2.233a20.982,20.982,0,0,1-14.93,6.185Zm3.814,13.349v-9.608a24.725,24.725,0,0,0,15.256-6.778,24.714,24.714,0,0,0,15.256,6.778v9.608a15.141,15.141,0,0,1-2.063,7.628H59.423V133.4H69.481a15.232,15.232,0,0,1-25.314-11.442Zm20.977,18.191v.09l-5.721,5.721L53.7,140.235v-.09a19.055,19.055,0,0,0,11.442,0ZM30.482,151.868a9.538,9.538,0,0,1,7.34-6.368l13.33-2.422,8.271,8.271,8.269-8.269L81.02,145.5a9.535,9.535,0,0,1,7.34,6.368L91.1,160.1H51.66l-7.428-7.428-8.254,7.466a1.948,1.948,0,0,1-2.7,0l-4.165-4.165ZM13,127.483l8.746,8.746L19.675,138.3l-8.746-8.746Zm33.44,45.078a9.537,9.537,0,0,1-13.485,0L7.182,146.786a9.537,9.537,0,0,1,0-13.485l1.049-1.049L16.977,141l-.069.069a5.731,5.731,0,0,0,0,8.092l13.675,13.675a5.691,5.691,0,0,0,4.047,1.676,5.615,5.615,0,0,0,3.976-1.61l.143-.128,8.786,8.786Zm3.909-3.585-8.767-8.767,2.519-2.277,8.751,8.751Z" transform="translate(-0.58 -80)"/></g><g transform="translate(80.395)"><path class="a" d="M367.848,0h-26.7a5.728,5.728,0,0,0-5.721,5.721V20.977a5.728,5.728,0,0,0,5.721,5.721h5.094l-1.972,11.5,18.4-11.5h5.174a5.728,5.728,0,0,0,5.721-5.721V5.721A5.728,5.728,0,0,0,367.848,0Zm1.907,20.977a1.91,1.91,0,0,1-1.907,1.907h-6.268l-12.112,7.569,1.3-7.569h-9.617a1.91,1.91,0,0,1-1.907-1.907V5.721a1.91,1.91,0,0,1,1.907-1.907h26.7a1.91,1.91,0,0,1,1.907,1.907Z" transform="translate(-335.428)"/></g><g transform="translate(88.023 7.628)"><rect class="a" width="22.884" height="3.814"/></g><g transform="translate(88.023 15.256)"><rect class="a" width="15.256" height="3.814"/></g><g transform="translate(107.093 15.256)"><rect class="a" width="3.814" height="3.814"/></g><g transform="translate(0.572 5.721)"><g transform="translate(0)"><path class="a" d="M59.417,24A53.363,53.363,0,0,0,7.456,65.278L3.843,59.253.572,61.216l6.7,11.169,11.169-6.7-1.962-3.271-5.168,3.1A49.6,49.6,0,0,1,74.109,30.026l1.129-3.642A53.362,53.362,0,0,0,59.417,24Z" transform="translate(-0.572 -24)"/></g></g><g transform="translate(97.941 35.522)"><path class="a" d="M428.7,155.719l-11.169-6.7-6.7,11.171,3.271,1.962,3.337-5.563a49.625,49.625,0,0,1-8.4,47.243l2.962,2.4a53.4,53.4,0,0,0,9.138-50.6l5.6,3.362Z" transform="translate(-409.036 -149.016)"/></g></g></svg>