<?xml version="1.0" encoding="utf-8"?>
<!-- Generator: Adobe Illustrator 24.1.1, SVG Export Plug-In . SVG Version: 6.00 Build 0)  -->
<svg version="1.1" id="Capa_1" xmlns="http://www.w3.org/2000/svg" xmlns:xlink="http://www.w3.org/1999/xlink" x="0px" y="0px"
	 viewBox="0 0 107 107" style="enable-background:new 0 0 107 107;" xml:space="preserve">
<style type="text/css">
	.st0{fill:#6B6B6B;}
	.st1{fill:#F39C12;}
</style>
<g>
	<g>
		<path class="st0" d="M53.5,0c-5.9,0-10.7,4.8-10.7,10.7s4.8,10.7,10.7,10.7c5.9,0,10.7-4.8,10.7-10.7C64.2,4.8,59.4,0,53.5,0z
			 M53.5,17.8c-3.9,0-7.1-3.2-7.1-7.1s3.2-7.1,7.1-7.1s7.1,3.2,7.1,7.1S57.4,17.8,53.5,17.8z"/>
	</g>
</g>
<g>
	<g>
		<path class="st0" d="M60.6,23.2h-0.4l-0.4,0.2c-4,2-8.7,2-12.7,0l-0.4-0.2h-0.4c-4.9,0-8.9,4-8.9,8.9v10.7c0,3,2.4,5.4,5.3,5.4
			h21.4c3,0,5.4-2.4,5.4-5.4V32.1C69.5,27.2,65.6,23.2,60.6,23.2z M66,42.8c0,1-0.8,1.8-1.8,1.8H42.8c-1,0-1.8-0.8-1.8-1.8V32.1
			c0-2.8,2.2-5.1,5-5.3c4.8,2.2,10.3,2.2,15,0c2.8,0.2,5,2.5,5,5.3V42.8z"/>
	</g>
</g>
<g>
	<g>
		<path class="st0" d="M90.9,58.8c-5.9,0-10.7,4.8-10.7,10.7S85,80.3,90.9,80.3s10.7-4.8,10.7-10.7C101.6,63.6,96.9,58.9,90.9,58.8z
			 M90.9,76.7c-3.9,0-7.1-3.2-7.1-7.1c0-3.9,3.2-7.1,7.1-7.1c3.9,0,7.1,3.2,7.1,7.1C98.1,73.5,94.9,76.7,90.9,76.7z"/>
	</g>
</g>
<g>
	<g>
		<path class="st0" d="M98.1,82h-0.4l-0.4,0.2c-4,2-8.7,2-12.7,0L84.2,82h-0.4c-4.9,0-8.9,4-8.9,8.9v10.7c0,3,2.4,5.3,5.3,5.3h21.4
			c3,0,5.3-2.4,5.3-5.3V90.9C107,86,103,82,98.1,82z M103.4,101.7c0,1-0.8,1.8-1.8,1.8H80.3c-1,0-1.8-0.8-1.8-1.8V90.9
			c0-2.8,2.2-5.1,5-5.3c4.8,2.2,10.3,2.2,15,0c2.8,0.2,5,2.5,5,5.3V101.7z"/>
	</g>
</g>
<g>
	<g>
		<path class="st0" d="M16,58.8c-5.9,0-10.7,4.8-10.7,10.7S10.1,80.3,16,80.3s10.7-4.8,10.7-10.7C26.7,63.6,22,58.9,16,58.8z
			 M16,76.7c-3.9,0-7.1-3.2-7.1-7.1c0-3.9,3.2-7.1,7.1-7.1s7.1,3.2,7.1,7.1C23.2,73.5,20,76.7,16,76.7z"/>
	</g>
</g>
<g>
	<g>
		<path class="st0" d="M23.2,82h-0.4l-0.4,0.2c-4,2-8.7,2-12.7,0L9.3,82H8.9C4,82,0,86,0,90.9v10.7c0,3,2.4,5.3,5.3,5.3h21.4
			c3,0,5.3-2.4,5.3-5.3V90.9C32.1,86,28.1,82,23.2,82z M28.5,101.7c0,1-0.8,1.8-1.8,1.8H5.3c-1,0-1.8-0.8-1.8-1.8V90.9
			c0-2.8,2.2-5.1,5-5.3c4.8,2.2,10.3,2.2,15,0c2.8,0.2,5,2.5,5,5.3V101.7z"/>
	</g>
</g>
<g>
	<g>
		<path class="st1" d="M71.2,90.6C71.2,90.6,71.2,90.6,71.2,90.6c-0.4-0.9-1.4-1.3-2.3-0.9l0,0c-8.1,3.4-17,4-25.4,1.8l1.7-0.5
			c0.9-0.3,1.5-1.3,1.2-2.2c-0.3-0.9-1.3-1.5-2.2-1.2l-7.1,2.1c0,0,0,0-0.1,0c-0.2,0.1-0.3,0.1-0.5,0.3c-0.1,0-0.1,0.1-0.2,0.1
			c-0.2,0.2-0.3,0.4-0.4,0.6c-0.1,0.2-0.1,0.5-0.1,0.7c0,0.2,0.1,0.5,0.2,0.7c0,0,0,0.1,0,0.1l3.6,6.8c0.5,0.9,1.5,1.2,2.4,0.8
			s1.2-1.5,0.8-2.4l-1.5-2.8c9.6,2.9,19.9,2.3,29.1-1.6C71.2,92.5,71.6,91.5,71.2,90.6z"/>
	</g>
</g>
<g>
	<g>
		<path class="st1" d="M101.1,46.9c-0.7-0.7-1.8-0.7-2.5,0l-2.5,2.5c-1.5-15.6-11.4-29.2-25.8-35.3c-0.9-0.4-2,0-2.3,0.9
			c-0.4,0.9,0,2,0.9,2.3c13,5.5,22,17.5,23.6,31.5l-2-2c-0.7-0.7-1.8-0.7-2.5,0c-0.7,0.7-0.7,1.8,0,2.5l5.4,5.4
			c0.7,0.7,1.8,0.7,2.5,0c0,0,0,0,0,0l5.3-5.4C101.8,48.7,101.8,47.6,101.1,46.9z"/>
	</g>
</g>
<g>
	<g>
		<path class="st1" d="M39.2,15.4c0-0.1,0-0.2,0-0.3c0,0,0,0,0,0c0,0,0,0,0,0c0-0.1-0.1-0.2-0.2-0.2c-0.1-0.1-0.1-0.2-0.2-0.3
			c-0.1-0.1-0.2-0.2-0.3-0.2c-0.1-0.1-0.1-0.1-0.2-0.1l-7.1-3.3c-0.9-0.4-2,0.1-2.3,1c-0.4,0.9,0,1.9,0.8,2.3l3.7,1.7
			c-13.9,7.4-22.6,21.9-22.6,37.7c0,1,0.8,1.8,1.8,1.8s1.8-0.8,1.8-1.8c0-13.9,7.3-26.7,19.3-33.8l-1.3,2.7
			c-0.4,0.9-0.1,1.9,0.8,2.4c0.2,0.1,0.5,0.2,0.8,0.2c0.7,0,1.3-0.4,1.6-1l3.6-7.4c0,0,0,0,0-0.1c0-0.1,0.1-0.2,0.1-0.4
			c0-0.1,0.1-0.2,0.1-0.3C39.2,15.7,39.2,15.6,39.2,15.4z"/>
	</g>
</g>
</svg>
