<?xml version="1.0" encoding="utf-8"?>
<!-- Generator: Adobe Illustrator 24.1.1, SVG Export Plug-In . SVG Version: 6.00 Build 0)  -->
<svg version="1.1" id="Capa_1" xmlns="http://www.w3.org/2000/svg" xmlns:xlink="http://www.w3.org/1999/xlink" x="0px" y="0px"
	 viewBox="0 0 512 512" style="enable-background:new 0 0 512 512;" xml:space="preserve">
<style type="text/css">
	.st0{fill:#6B6B6B;}
</style>
<g>
	<path class="st0" d="M407.4,97.4c-6.1,0-12.1,0.5-18,1.6C365.1,32.7,295.7-8.6,226,1.5c-59.7,8.6-109.7,53.3-124.8,111.8l14.5,3.7
		c15.7-60.9,73-103.8,135.8-102c62.1,1.8,109.7,44.1,127.9,101.6c48.9-12.1,100.2,10.7,112.9,62.3c11.7,47.7-21.9,101.8-72.1,107.6
		l1.7,14.9c56.4-6.5,95.8-64.4,86.4-119C500.1,134,456.6,97.4,407.4,97.4L407.4,97.4z"/>
	<path class="st0" d="M74.7,301l2.3-14.8c-45.3-6-71.5-57.5-54.2-98.4c19.4-45.8,81-58.3,116.5-23l10.6-10.6
		c-18.3-18.8-43.7-23.4-43.7-23.4C59,121.9,12,152.4,3.5,200.4C-4.6,246.3,27.6,294.5,74.7,301L74.7,301z"/>
	<path class="st0" d="M406.6,272.1H91.4v195.2h-30V512h374.9v-44.7h-29.7V272.1z M421.3,497H76.4v-14.7h254.7v-15H106.4V287.1h285.2
		v180.2h-15.5v15h45.2V497z"/>
	<path class="st0" d="M376.1,301.7H196v15h165.1v120.1H136.9V316.7h14v-15h-29v150.1h254.2V301.7z"/>
	<path class="st0" d="M166,301.7h15v15h-15V301.7z"/>
	<path class="st0" d="M346.1,467.3h15v15h-15V467.3z"/>
	<path class="st0" d="M271,332.2H151.4v89.6H271V332.2z M256,347.2v15h-89.6v-15H256z M166.5,406.8v-29.5H256v29.5H166.5z"/>
	<path class="st0" d="M286,332.2h15v15h-15V332.2z"/>
	<path class="st0" d="M316.1,332.2h30v15h-30V332.2z"/>
	<path class="st0" d="M286,421.8h60.5v-59.5H286V421.8z M301.1,377.2h30.5v29.5h-30.5V377.2z"/>
	<path class="st0" d="M286.5,257h15v-59.9H356L256,91.6L155.4,197.1h56.1V257h15v-74.9h-36l65.5-68.7l65.1,68.7h-34.6V257z"/>
</g>
</svg>
