<?xml version="1.0" encoding="utf-8"?>
<!-- Generator: Adobe Illustrator 16.0.0, SVG Export Plug-In . SVG Version: 6.00 Build 0)  -->
<!DOCTYPE svg PUBLIC "-//W3C//DTD SVG 1.1//EN" "http://www.w3.org/Graphics/SVG/1.1/DTD/svg11.dtd">
<svg version="1.1" id="Capa_1" xmlns="http://www.w3.org/2000/svg" xmlns:xlink="http://www.w3.org/1999/xlink" x="0px" y="0px"
	 width="64px" height="64px" viewBox="0 0 64 64" enable-background="new 0 0 64 64" xml:space="preserve">
<g>
	<g>
		<g>
			<path fill="#FFFFFF" d="M63.389,53.552L35.902,5.942C35.088,4.532,33.629,3.69,32,3.69s-3.087,0.842-3.902,2.252L0.611,53.552
				c-0.814,1.411-0.814,3.095,0,4.506c0.814,1.41,2.273,2.253,3.902,2.253h54.975c1.629,0,3.087-0.843,3.901-2.253
				C64.203,56.646,64.203,54.963,63.389,53.552z M60.138,56.18c-0.081,0.141-0.273,0.376-0.65,0.376H4.513
				c-0.377,0-0.569-0.235-0.65-0.376c-0.081-0.14-0.188-0.424,0-0.75L31.35,7.82c0.188-0.327,0.488-0.375,0.65-0.375
				s0.461,0.049,0.65,0.375l27.487,47.61C60.326,55.756,60.219,56.04,60.138,56.18z"/>
			<rect x="30.124" y="20.762" fill="#FFFFFF" width="3.754" height="20.025"/>
			<circle fill="#FFFFFF" cx="32" cy="47.044" r="2.503"/>
		</g>
	</g>
</g>
</svg>
