<svg xmlns="http://www.w3.org/2000/svg" width="110.593" height="110.593" viewBox="0 0 110.593 110.593"><defs><style>.a{fill:#6b6b6b;}</style></defs><g transform="translate(-0.5 0)"><path class="a" d="M124.5,60.826V57.139a1.844,1.844,0,0,0,1.843-1.843V44.237a1.844,1.844,0,0,0-1.843-1.843H114.55l-.357-1.385A34.062,34.062,0,0,0,110.433,32L109.7,30.77l7.067-7.079a1.827,1.827,0,0,0,0-2.58l-7.828-7.839a1.87,1.87,0,0,0-2.581,0l-7.08,7.08-1.233-.737a34.139,34.139,0,0,0-9.017-3.762l-1.384-.36V5.53A1.843,1.843,0,0,0,85.8,3.686H74.737A1.843,1.843,0,0,0,72.894,5.53v9.953l-1.385.358A34.131,34.131,0,0,0,62.5,19.6l-1.233.738-7.078-7.065a1.869,1.869,0,0,0-2.59,0L43.771,21.1a1.83,1.83,0,0,0,0,2.592l7.08,7.079L50.114,32a34.059,34.059,0,0,0-3.76,9.006l-.361,1.385H36.03a1.843,1.843,0,0,0-1.843,1.843V55.3a1.843,1.843,0,0,0,1.843,1.843v3.686A5.53,5.53,0,0,1,30.5,55.3V44.237a5.53,5.53,0,0,1,5.53-5.53h7.132a37.64,37.64,0,0,1,3.067-7.341L41.16,26.3a5.511,5.511,0,0,1,0-7.8l7.834-7.834a5.645,5.645,0,0,1,7.806,0l5.067,5.067a37.645,37.645,0,0,1,7.341-3.064V5.53A5.53,5.53,0,0,1,74.737,0H85.8a5.53,5.53,0,0,1,5.53,5.53v7.133a37.653,37.653,0,0,1,7.341,3.066l5.069-5.069a5.646,5.646,0,0,1,7.806,0l7.832,7.831a5.515,5.515,0,0,1,0,7.8l-5.069,5.069a37.782,37.782,0,0,1,3.066,7.343H124.5a5.53,5.53,0,0,1,5.53,5.53V55.3a5.53,5.53,0,0,1-5.53,5.53Zm0,0" transform="translate(-24.471)"/><path class="a" d="M212.11,155.8h-3.686a22.119,22.119,0,0,0-44.237,0H160.5a25.8,25.8,0,0,1,51.61,0Zm0,0" transform="translate(-130.509 -106.038)"/><path class="a" d="M251.559,252.118a11.059,11.059,0,1,1,11.059-11.059A11.06,11.06,0,0,1,251.559,252.118Zm0-18.432a7.373,7.373,0,1,0,7.373,7.373A7.373,7.373,0,0,0,251.559,233.686Zm0,0" transform="translate(-195.763 -187.606)"/><path class="a" d="M421.559,292.118a11.059,11.059,0,1,1,11.059-11.059A11.06,11.06,0,0,1,421.559,292.118Zm0-18.432a7.373,7.373,0,1,0,7.373,7.373A7.373,7.373,0,0,0,421.559,273.686Zm0,0" transform="translate(-334.429 -220.233)"/><path class="a" d="M81.559,292.118a11.059,11.059,0,1,1,11.059-11.059A11.06,11.06,0,0,1,81.559,292.118Zm0-18.432a7.373,7.373,0,1,0,7.373,7.373A7.373,7.373,0,0,0,81.559,273.686Zm0,0" transform="translate(-57.098 -220.233)"/><path class="a" d="M103.84,370.258a16.4,16.4,0,0,0-9.337-2.886H79.758a16.5,16.5,0,0,0-2.675.243,16.54,16.54,0,0,0-4.514-4.684,7.147,7.147,0,0,0-.85-.552A16.46,16.46,0,0,0,63.169,360H48.423a16.4,16.4,0,0,0-13.909,7.615,16.559,16.559,0,0,0-2.68-.243H17.089a16.4,16.4,0,0,0-9.332,2.882A16.589,16.589,0,0,0,.5,383.961v7.373a12.914,12.914,0,0,0,7.506,11.712,12.5,12.5,0,0,0,5.4,1.191H31.834V400.55H15.245V380.274H11.559v20.09a8.651,8.651,0,0,1-2.007-.667,9.23,9.23,0,0,1-5.365-8.364v-7.373A12.916,12.916,0,0,1,9.837,373.3a12.749,12.749,0,0,1,7.251-2.237H31.834c.325,0,.638.035.955.056a16.588,16.588,0,0,0-.955,5.473V395.02a9.228,9.228,0,0,0,9.216,9.216h5.53V374.745H42.894v25.8H41.05a5.53,5.53,0,0,1-5.53-5.53V376.588a12.9,12.9,0,0,1,12.9-12.9H63.169a12.879,12.879,0,0,1,6.718,1.9,4.606,4.606,0,0,1,.538.344,13.057,13.057,0,0,1,4.133,4.608,12.874,12.874,0,0,1,1.513,6.054V395.02a5.53,5.53,0,0,1-5.53,5.53H68.7v-25.8H65.012v29.491h5.53a9.227,9.227,0,0,0,9.216-9.216V376.588a16.627,16.627,0,0,0-.953-5.473c.318-.022.631-.056.953-.056H94.5a12.757,12.757,0,0,1,7.256,2.241,12.918,12.918,0,0,1,5.646,10.662v7.373a9.229,9.229,0,0,1-5.4,8.379,8.476,8.476,0,0,1-1.976.652v-20.09H96.347V400.55H79.758v3.686H98.19a12.465,12.465,0,0,0,5.365-1.176,12.919,12.919,0,0,0,7.537-11.726v-7.373a16.589,16.589,0,0,0-7.252-13.7Zm0,0" transform="translate(0 -293.644)"/><path class="a" d="M260.5,580h14.746v3.686H260.5Zm0,0" transform="translate(-212.077 -473.094)"/></g></svg>