<svg xmlns="http://www.w3.org/2000/svg" width="113.922" height="113.9" viewBox="0 0 113.922 113.9"><defs><style>.a{fill:#777;}.b{fill:#6b6b6b;}.c{fill:#f39c12;}</style></defs><g transform="translate(0)"><path class="a" d="M59.692,47.979a3.8,3.8,0,0,0,3.959,0L65.5,46.844A3.816,3.816,0,0,0,67.321,43.6v-4.96A4.129,4.129,0,0,0,63.184,34.5H60.137A4.158,4.158,0,0,0,56,38.637V43.6a3.816,3.816,0,0,0,1.824,3.247Zm-.356-9.342a.8.8,0,0,1,.8-.8h3.047a.8.8,0,0,1,.8.8V43.6a.5.5,0,0,1-.222.4l-1.846,1.134a.482.482,0,0,1-.489,0L59.581,44a.5.5,0,0,1-.222-.4l-.022-4.96Z" transform="translate(-43.545 -26.827)"/><path class="a" d="M407.046,46.844l1.579.956h0l.267.156a3.8,3.8,0,0,0,3.959,0l1.846-1.134a3.816,3.816,0,0,0,1.824-3.247V38.637a4.129,4.129,0,0,0-4.137-4.137h-3.047a4.143,4.143,0,0,0-4.137,4.137V43.6A3.83,3.83,0,0,0,407.046,46.844Zm1.512-8.207a.8.8,0,0,1,.8-.8h3.047a.8.8,0,0,1,.8.8V43.6a.5.5,0,0,1-.222.4h0l-1.846,1.134a.482.482,0,0,1-.489,0L408.8,44a.5.5,0,0,1-.222-.4v-4.96Z" transform="translate(-315.076 -26.827)"/><path class="a" d="M60.137,383.8A4.143,4.143,0,0,0,56,387.937v4.96a3.816,3.816,0,0,0,1.824,3.247l1.846,1.134a3.8,3.8,0,0,0,3.959,0l1.846-1.134A3.816,3.816,0,0,0,67.3,392.9v-4.96a4.129,4.129,0,0,0-4.137-4.137Zm3.848,4.137v4.96a.5.5,0,0,1-.222.4l-1.846,1.134a.482.482,0,0,1-.489,0L59.581,393.3a.5.5,0,0,1-.222-.4v-4.96a.8.8,0,0,1,.8-.8h3.047A.793.793,0,0,1,63.985,387.937Z" transform="translate(-43.545 -298.436)"/><path class="b" d="M95.773,77.668a17.949,17.949,0,0,0-11.432,4.092l-7.362-7.584a28.319,28.319,0,0,0,2.758-3.87,26.412,26.412,0,0,0-2.958-30.827L84.3,32.095A18.045,18.045,0,0,0,95.773,36.21a18.264,18.264,0,0,0,8.63-2.18.79.79,0,0,0,.2-.089,1.246,1.246,0,0,0,.334-.222,17.688,17.688,0,0,0,3.4-2.6,1.51,1.51,0,0,0,.267-.267,18.1,18.1,0,1,0-26.668-1.09l-7.5,7.384a27.327,27.327,0,0,0-4.115-2.98A26.464,26.464,0,0,0,40.3,36.432h0l-.022.022c-.267.222-.534.445-.8.689l-7.473-7.406a17.965,17.965,0,0,0,4.226-11.61,18.264,18.264,0,0,0-2.18-8.63.79.79,0,0,0-.089-.2,1.247,1.247,0,0,0-.222-.334A18.12,18.12,0,0,0,8.785,2.58,1.671,1.671,0,0,0,10.5,5.449,14.764,14.764,0,0,1,30,26.846,7.316,7.316,0,0,0,24.2,24.155H12.055A7.48,7.48,0,0,0,6.962,26.09a8.02,8.02,0,0,0-.734.778,14.725,14.725,0,0,1,0-17.527,1.67,1.67,0,0,0-2.691-1.98A18.061,18.061,0,0,0,5.316,30.894a1.166,1.166,0,0,0,.245.222,18.019,18.019,0,0,0,3.381,2.558,1.579,1.579,0,0,0,.311.222,2.609,2.609,0,0,0,.245.111A18.1,18.1,0,0,0,29.626,32.05l7.5,7.407a26.8,26.8,0,0,0-2.958,4.07,26.362,26.362,0,0,0-3.625,14.435v.022h0a26.183,26.183,0,0,0,2.625,10.431v.022h0a26.243,26.243,0,0,0,4.115,6.139l-7.651,7.229A17.955,17.955,0,0,0,18.1,77.646,18.1,18.1,0,0,0,5.316,108.562a2.537,2.537,0,0,0,.245.245,18.075,18.075,0,0,0,25.222-.111c.022-.022.067-.044.089-.089a21.46,21.46,0,0,0,2.869-3.714,1.679,1.679,0,1,0-2.8-1.824A16.069,16.069,0,0,1,30,104.514a7.316,7.316,0,0,0-5.805-2.691H12.055a7.48,7.48,0,0,0-5.093,1.935,8.021,8.021,0,0,0-.734.778,14.634,14.634,0,0,1-2.891-8.763,14.769,14.769,0,0,1,29.537,0,14.474,14.474,0,0,1-.089,1.713,1.668,1.668,0,0,0,3.314.378,16.464,16.464,0,0,0,.111-2.091,18.007,18.007,0,0,0-4.2-11.588l7.673-7.251a26.035,26.035,0,0,0,3.915,2.8,26.4,26.4,0,0,0,13.345,3.648c.423,0,.845,0,1.268-.022A26.539,26.539,0,0,0,71.618,78.98a26.888,26.888,0,0,0,3.069-2.38l7.318,7.518a18.036,18.036,0,0,0,1.023,24.466,2.537,2.537,0,0,0,.245.245,18.049,18.049,0,0,0,25.133-.044,1.51,1.51,0,0,0,.267-.267,18.006,18.006,0,0,0,5.249-12.745A18.188,18.188,0,0,0,95.773,77.668ZM9.208,106.227a4.19,4.19,0,0,1,2.847-1.045H24.2a4.231,4.231,0,0,1,2.847,1.045,3.426,3.426,0,0,1,.645.778,14.736,14.736,0,0,1-19.128.022A3.1,3.1,0,0,1,9.208,106.227ZM76.868,68.616A22.92,22.92,0,0,1,73.553,73l-.022.022c-.022.022-.044.067-.089.089A22.625,22.625,0,0,1,71,75.266a9.246,9.246,0,0,1-1.535-6.606c.356-1.646,1.312-2.447,2.513-3.47a8.46,8.46,0,0,0,3.4-5.182c.512-3.092-1-5.227-2.335-7.1-1.134-1.6-2.113-3-2.024-4.96a9.809,9.809,0,0,1,3.292-6.228A23.093,23.093,0,0,1,76.868,68.616Zm9.364-39.279a3.757,3.757,0,0,1,.667-.8,4.19,4.19,0,0,1,2.847-1.045h12.122a4.231,4.231,0,0,1,2.847,1.045,3.426,3.426,0,0,1,.645.778,14.7,14.7,0,0,1-9.586,3.536A14.532,14.532,0,0,1,86.231,29.337Zm9.542-26a14.764,14.764,0,0,1,11.9,23.51,7.556,7.556,0,0,0-.712-.756,7.48,7.48,0,0,0-5.093-1.935H89.723A7.48,7.48,0,0,0,84.63,26.09a8.018,8.018,0,0,0-.734.778A14.634,14.634,0,0,1,81,18.1,14.789,14.789,0,0,1,95.773,3.336Zm-87.232,26a3.757,3.757,0,0,1,.667-.8,4.19,4.19,0,0,1,2.847-1.045H24.2a4.231,4.231,0,0,1,2.847,1.045,4.132,4.132,0,0,1,.645.778A14.7,14.7,0,0,1,18.1,32.851,14.547,14.547,0,0,1,8.541,29.337ZM37.033,45.262a22.422,22.422,0,0,1,4.448-5.449A14.547,14.547,0,0,0,47.686,42.1a.912.912,0,0,0,.245.022,1.666,1.666,0,0,0,.245-3.314,11.234,11.234,0,0,1-3.826-1.2,23.131,23.131,0,0,1,27.6,1.757A12.988,12.988,0,0,0,67.7,47.8c-.133,3.092,1.335,5.182,2.647,7.006,1.268,1.8,2.046,2.98,1.757,4.649-.222,1.379-.979,2.068-2.269,3.181a9.4,9.4,0,0,0-3.6,5.294,12.682,12.682,0,0,0,2,9.141A23.07,23.07,0,0,1,59.9,79.826a21.268,21.268,0,0,0-.222-2.958c-.267-1.824-.756-5.227-3.447-7.362-2.291-1.824-4.96-1.8-6.895-1.779a8.4,8.4,0,0,1-1.957-.111A6.132,6.132,0,0,1,48,65.925c.6-1.246,1.4-2.958.289-4.4-1.312-1.713-3.959-1.112-4.826-.912a15.968,15.968,0,0,0-2.758.89,23.585,23.585,0,0,0-5.449,3.336,22.733,22.733,0,0,1-1.246-5.271c1.624-.067,3.536-.311,5.894-.623h.067c6.406-.823,11.922-1.512,12.767-5.093a4.565,4.565,0,0,0-.956-3.692c2.358.734,5.36,1.535,7.473-.133a6.169,6.169,0,0,0,2.024-4.515,7.308,7.308,0,0,0-1.913-5.56,5.271,5.271,0,0,0-4.426-1.312,1.662,1.662,0,0,0,.245,3.314c1.157-.089,1.512.044,1.846.378a4.03,4.03,0,0,1,.912,3,3.094,3.094,0,0,1-.756,2.091c-.867.689-3.27-.067-4.871-.578-2.091-.667-4.07-1.29-5.093.356-.912,1.446.222,2.847,1.045,3.87.467.578,1.335,1.624,1.223,2.046,0,.022-.178.667-2.647,1.335a60.425,60.425,0,0,1-7.3,1.223H39.5c-2.291.289-4.137.534-5.627.6A22.7,22.7,0,0,1,37.033,45.262ZM36.7,68.038a19.515,19.515,0,0,1,5.294-3.425,11.822,11.822,0,0,1,3.359-.89c-.111.267-.245.556-.356.8-.623,1.312-1.468,3.092-.534,4.782,1.023,1.846,3.092,1.824,4.915,1.8,1.69-.022,3.425-.044,4.782,1.045,1.646,1.312,2,3.67,2.224,5.249a17.887,17.887,0,0,1,.2,2.647A23.172,23.172,0,0,1,36.7,68.038ZM95.773,81a14.764,14.764,0,0,1,11.9,23.51,7.556,7.556,0,0,0-.712-.756,7.48,7.48,0,0,0-5.093-1.935H89.723a7.48,7.48,0,0,0-5.093,1.935,8.019,8.019,0,0,0-.734.778A14.634,14.634,0,0,1,81,95.773,14.789,14.789,0,0,1,95.773,81Zm-9.542,26.023a3.757,3.757,0,0,1,.667-.8,4.19,4.19,0,0,1,2.847-1.045h12.122a4.231,4.231,0,0,1,2.847,1.045,4.132,4.132,0,0,1,.645.778,14.736,14.736,0,0,1-19.128.022Z"/><path class="a" d="M407.046,396.144l1.846,1.134a3.8,3.8,0,0,0,3.959,0l1.846-1.134a3.816,3.816,0,0,0,1.824-3.247v-4.96a4.129,4.129,0,0,0-4.137-4.137h-3.047a4.143,4.143,0,0,0-4.137,4.137v4.96A3.888,3.888,0,0,0,407.046,396.144Zm1.512-8.207a.8.8,0,0,1,.8-.8h3.047a.8.8,0,0,1,.8.8v4.96a.5.5,0,0,1-.222.4l-1.846,1.134a.482.482,0,0,1-.489,0L408.8,393.3a.5.5,0,0,1-.222-.4v-4.96Z" transform="translate(-315.076 -298.436)"/><g transform="translate(2.357 2.357)"><path class="c" d="M342.934,467.457c-.022,0-.045.022-.067.022a1.67,1.67,0,0,0,.667,3.2,1.786,1.786,0,0,0,.667-.133,1.671,1.671,0,0,0-1.268-3.092Z" transform="translate(-268.179 -365.745)"/><path class="c" d="M226.118,485.272h0a1.667,1.667,0,1,0-.356,3.314h.2a1.683,1.683,0,0,0,1.668-1.49A1.7,1.7,0,0,0,226.118,485.272Z" transform="translate(-176.741 -379.69)"/><path class="c" d="M196.553,480.329l-.4,1.624.4-1.624a1.672,1.672,0,1,0-.8,3.247l.044.022a1.949,1.949,0,0,0,.356.044,1.662,1.662,0,0,0,1.624-1.312A1.605,1.605,0,0,0,196.553,480.329Z" transform="translate(-153.581 -375.814)"/><path class="c" d="M167.892,471.812h0a1.679,1.679,0,1,0-1.2,3.136h.022a1.892,1.892,0,0,0,.578.111,1.674,1.674,0,0,0,1.557-1.09A1.626,1.626,0,0,0,167.892,471.812Z" transform="translate(-131.125 -369.143)"/><path class="c" d="M285.62,483.814l.245,1.646-.245-1.646a1.645,1.645,0,0,0-1.4,1.891,1.672,1.672,0,0,0,1.646,1.423.913.913,0,0,0,.245-.022h.044a1.662,1.662,0,0,0,1.379-1.913A1.635,1.635,0,0,0,285.62,483.814Z" transform="translate(-223.343 -378.543)"/><path class="c" d="M255.989,486.4h-.067a1.681,1.681,0,0,0-1.624,1.713,1.657,1.657,0,0,0,1.668,1.624h.044a1.668,1.668,0,0,0-.022-3.336Z" transform="translate(-200.095 -380.573)"/><path class="c" d="M314.937,477.374h-.022a1.656,1.656,0,0,0,.489,3.247,1.436,1.436,0,0,0,.445-.067,1.679,1.679,0,0,0,1.157-2.068A1.654,1.654,0,0,0,314.937,477.374Z" transform="translate(-246.298 -373.504)"/><path class="c" d="M285.638,16.529a1.083,1.083,0,0,0,.267.022,1.668,1.668,0,0,0,.267-3.314h-.044a1.664,1.664,0,1,0-.489,3.292Z" transform="translate(-223.361 -12.636)"/><path class="c" d="M342.968,32.77c.022,0,.045.022.067.022a1.57,1.57,0,0,0,.623.133,1.687,1.687,0,0,0,1.557-1.045,1.66,1.66,0,0,0-.912-2.18l-.667,1.535L344.3,29.7a1.673,1.673,0,0,0-1.335,3.069Z" transform="translate(-268.257 -25.34)"/><path class="c" d="M225.918,15.186h.2a1.665,1.665,0,1,0-.334-3.314h-.022a1.67,1.67,0,0,0-1.49,1.824A1.646,1.646,0,0,0,225.918,15.186Z" transform="translate(-176.741 -11.583)"/><path class="c" d="M196.185,20.049a2.191,2.191,0,0,0,.378-.044h.044a1.667,1.667,0,0,0-.756-3.247l.356,1.624-.378-1.624a1.682,1.682,0,0,0-1.268,2A1.661,1.661,0,0,0,196.185,20.049Z" transform="translate(-153.614 -15.356)"/><path class="c" d="M314.775,22.811h.022a1.636,1.636,0,0,0,2.046-1.157,1.689,1.689,0,0,0-1.157-2.068l-.467,1.6.467-1.6a1.694,1.694,0,0,0-2.068,1.134A1.74,1.74,0,0,0,314.775,22.811Z" transform="translate(-246.181 -17.539)"/><path class="c" d="M167.322,28.7a1.673,1.673,0,1,0-.556-3.247l-.044.022a1.688,1.688,0,0,0-.979,2.157A1.739,1.739,0,0,0,167.322,28.7Z" transform="translate(-131.157 -22.072)"/><path class="c" d="M255.9,13.934h.067a1.672,1.672,0,0,0,1.668-1.624,1.7,1.7,0,0,0-1.624-1.713l-.045,1.668.045-1.668a1.669,1.669,0,0,0-.111,3.336Z" transform="translate(-200.095 -10.598)"/><path class="c" d="M29.8,344.292a1.668,1.668,0,0,0,1.512.979,1.555,1.555,0,0,0,.689-.156,1.674,1.674,0,1,0-2.246-.89C29.78,344.248,29.78,344.292,29.8,344.292Z" transform="translate(-25.397 -268.225)"/><path class="c" d="M16.684,195.852l-.022.067a1.657,1.657,0,0,0,1.29,1.98,1.727,1.727,0,0,0,.356.044,1.681,1.681,0,0,0,1.624-1.312,1.67,1.67,0,0,0-3.247-.778Zm1.957.467-.334-.089.378.089Z" transform="translate(-15.282 -153.659)"/><path class="c" d="M11.671,225.762a1.653,1.653,0,0,0,1.468,1.824c.067,0,.133.022.2.022a1.642,1.642,0,0,0,1.646-1.468v-.067a1.664,1.664,0,0,0-3.314-.311Z" transform="translate(-11.426 -176.741)"/><path class="c" d="M19.714,315.8a1.689,1.689,0,0,0,1.6,1.179,1.853,1.853,0,0,0,.489-.067,1.682,1.682,0,0,0,1.112-2.068,1.673,1.673,0,0,0-3.225.89A.082.082,0,0,0,19.714,315.8Z" transform="translate(-17.623 -246.227)"/><path class="c" d="M12.266,257.63h.044a1.681,1.681,0,0,0,1.624-1.713v-.022a1.648,1.648,0,0,0-1.713-1.6,1.687,1.687,0,0,0-1.624,1.735A1.653,1.653,0,0,0,12.266,257.63Z" transform="translate(-10.598 -200.09)"/><path class="c" d="M16.529,285.661v-.022a1.661,1.661,0,0,0-1.891-1.4,1.678,1.678,0,0,0,.245,3.336.911.911,0,0,0,.245-.022A1.661,1.661,0,0,0,16.529,285.661Z" transform="translate(-12.636 -223.361)"/><path class="c" d="M27.569,165.812a1.67,1.67,0,0,0-2.157.979v.022a1.67,1.67,0,0,0,.979,2.157,1.892,1.892,0,0,0,.578.111,1.674,1.674,0,0,0,1.557-1.09v-.022A1.659,1.659,0,0,0,27.569,165.812Z" transform="translate(-22.031 -131.203)"/><path class="c" d="M479.053,316.978a1.689,1.689,0,0,0,1.6-1.179c0-.022.022-.044.022-.067a1.673,1.673,0,1,0-2.113,1.179A1.984,1.984,0,0,0,479.053,316.978Z" transform="translate(-373.56 -246.227)"/><path class="c" d="M489.736,256.011a1.669,1.669,0,0,0-3.336-.089v.067a1.68,1.68,0,0,0,1.668,1.668A1.647,1.647,0,0,0,489.736,256.011Zm-1.423-.045h0Z" transform="translate(-380.573 -200.095)"/><path class="c" d="M474.779,166.822A1.675,1.675,0,0,0,471.643,168v.022a1.679,1.679,0,0,0,3.136-1.2Z" transform="translate(-369.019 -131.235)"/><path class="c" d="M467.521,343.035a1.655,1.655,0,0,0,.845,2.18,1.935,1.935,0,0,0,.69.156,1.622,1.622,0,0,0,1.512-.979c0-.022.022-.045.022-.067a1.66,1.66,0,0,0-.912-2.18A1.643,1.643,0,0,0,467.521,343.035Z" transform="translate(-365.786 -268.302)"/><path class="c" d="M486.739,224.256a1.687,1.687,0,0,0-1.468,1.846,1.669,1.669,0,0,0,1.668,1.512h.156a1.666,1.666,0,0,0,1.512-1.8v-.067A1.689,1.689,0,0,0,486.739,224.256Z" transform="translate(-379.689 -176.725)"/><path class="c" d="M485.728,284.237a1.661,1.661,0,0,0-1.891,1.4v.022a1.661,1.661,0,0,0,1.4,1.891.913.913,0,0,0,.245.022,1.655,1.655,0,0,0,1.646-1.423l-1.646-.267,1.646.245A1.645,1.645,0,0,0,485.728,284.237Z" transform="translate(-378.566 -223.361)"/><path class="c" d="M483.576,195.852a1.67,1.67,0,1,0-1.624,2.091,1.714,1.714,0,0,0,.334-.044,1.646,1.646,0,0,0,1.29-1.98Z" transform="translate(-375.814 -153.659)"/><path class="c" d="M231.7,53.1a5.4,5.4,0,1,0,5.4-5.4A5.411,5.411,0,0,0,231.7,53.1Zm7.473,0a2.068,2.068,0,1,1-2.068-2.068A2.079,2.079,0,0,1,239.173,53.1Z" transform="translate(-182.523 -39.448)"/><path class="c" d="M237.1,414.9a5.4,5.4,0,1,0,5.4,5.4A5.411,5.411,0,0,0,237.1,414.9Zm0,7.473a2.068,2.068,0,1,1,2.068-2.068A2.079,2.079,0,0,1,237.1,422.373Z" transform="translate(-182.523 -324.976)"/><path class="c" d="M58.509,241.6a5.4,5.4,0,1,0-5.4,5.4A5.411,5.411,0,0,0,58.509,241.6Zm-7.473,0a2.068,2.068,0,1,1,2.068,2.068A2.051,2.051,0,0,1,51.036,241.6Z" transform="translate(-39.448 -186.022)"/><path class="c" d="M415.7,241.6a5.4,5.4,0,1,0,5.4-5.4A5.411,5.411,0,0,0,415.7,241.6Zm7.473,0a2.068,2.068,0,1,1-2.068-2.068A2.079,2.079,0,0,1,423.173,241.6Z" transform="translate(-325.598 -186.022)"/></g></g></svg>